<svg xmlns="http://www.w3.org/2000/svg" xmlns:xlink="http://www.w3.org/1999/xlink" width="180" zoomAndPan="magnify" viewBox="0 0 135 135.000003" height="180" preserveAspectRatio="xMidYMid meet" version="1.0"><defs><g/><clipPath id="1aca5c728a"><path d="M 26.300781 7.117188 L 108.9375 7.117188 L 108.9375 95.710938 L 26.300781 95.710938 Z M 26.300781 7.117188 " clip-rule="nonzero"/></clipPath><clipPath id="167ffb0938"><path d="M 48 103 L 87 103 L 87 134.007812 L 48 134.007812 Z M 48 103 " clip-rule="nonzero"/></clipPath><clipPath id="f992e743d8"><rect x="0" width="39" y="0" height="32"/></clipPath></defs><g clip-path="url(#1aca5c728a)"><path fill="#000000" d="M 41.328125 53.503906 C 46.875 53.484375 51.714844 50.492188 54.324219 46.046875 L 54.363281 45.976562 C 54.964844 47.027344 55.632812 47.933594 56.398438 48.757812 L 56.386719 48.75 C 59.195312 51.679688 63.148438 53.503906 67.53125 53.503906 C 71.914062 53.503906 75.867188 51.679688 78.667969 48.753906 L 78.675781 48.75 C 79.429688 47.933594 80.097656 47.027344 80.660156 46.050781 L 80.699219 45.976562 C 83.355469 50.472656 88.195312 53.445312 93.738281 53.445312 C 102.0625 53.445312 108.808594 46.734375 108.808594 38.457031 C 108.808594 37.417969 108.703125 36.40625 108.5 35.425781 L 108.519531 35.519531 L 104.574219 15.910156 C 103.566406 11.085938 99.335938 7.511719 94.261719 7.503906 L 40.765625 7.503906 C 35.691406 7.511719 31.460938 11.085938 30.46875 15.84375 L 30.457031 15.910156 L 26.511719 35.519531 C 26.320312 36.410156 26.214844 37.433594 26.214844 38.480469 C 26.214844 46.777344 32.976562 53.5 41.320312 53.5 C 41.324219 53.5 41.324219 53.5 41.328125 53.5 Z M 94.261719 11.6875 C 97.308594 11.6875 99.851562 13.835938 100.4375 16.691406 L 100.445312 16.730469 L 104.394531 36.359375 C 104.527344 36.996094 104.605469 37.730469 104.605469 38.480469 C 104.605469 44.46875 99.722656 49.324219 93.699219 49.324219 C 87.9375 49.324219 83.214844 44.875 82.820312 39.246094 L 82.820312 39.210938 L 82.703125 37.492188 L 80.96875 11.691406 Z M 58.261719 11.6875 L 76.765625 11.6875 L 78.511719 37.757812 C 78.527344 37.988281 78.539062 38.257812 78.539062 38.527344 C 78.539062 41.378906 77.417969 43.96875 75.59375 45.890625 L 75.597656 45.886719 C 73.597656 48.007812 70.761719 49.324219 67.617188 49.324219 C 67.542969 49.324219 67.46875 49.324219 67.394531 49.324219 L 67.40625 49.324219 C 67.40625 49.324219 67.402344 49.324219 67.402344 49.324219 C 61.378906 49.324219 56.496094 44.46875 56.496094 38.480469 C 56.496094 38.226562 56.507812 37.976562 56.523438 37.726562 L 56.519531 37.761719 Z M 30.632812 36.359375 L 34.582031 16.738281 C 35.175781 13.839844 37.71875 11.6875 40.765625 11.6875 L 54.054688 11.6875 L 52.332031 37.480469 L 52.207031 39.203125 C 51.816406 44.875 47.09375 49.328125 41.324219 49.328125 C 35.300781 49.328125 30.417969 44.472656 30.417969 38.484375 C 30.417969 37.734375 30.496094 37 30.640625 36.289062 L 30.628906 36.359375 Z M 31.765625 57.53125 L 31.765625 84.863281 C 31.765625 90.636719 36.476562 95.320312 42.28125 95.320312 L 92.746094 95.320312 C 98.550781 95.320312 103.261719 90.636719 103.261719 84.863281 L 103.261719 57.523438 C 102.0625 58.132812 100.664062 58.664062 99.203125 59.042969 L 99.054688 59.078125 L 99.054688 84.863281 C 99.054688 88.328125 96.230469 91.136719 92.746094 91.136719 L 78.027344 91.136719 L 78.027344 76.5 C 78.027344 70.730469 73.320312 66.046875 67.515625 66.046875 C 61.707031 66.046875 57 70.730469 57 76.5 L 57 91.136719 L 42.28125 91.136719 C 38.796875 91.136719 35.972656 88.328125 35.972656 84.863281 L 35.972656 59.078125 C 34.363281 58.664062 32.964844 58.132812 31.648438 57.46875 L 31.765625 57.523438 Z M 61.207031 76.5 C 61.207031 73.035156 64.03125 70.230469 67.515625 70.230469 C 71 70.230469 73.824219 73.035156 73.824219 76.5 L 73.824219 91.136719 L 61.207031 91.136719 Z M 61.207031 76.5 " fill-opacity="1" fill-rule="nonzero"/></g><g clip-path="url(#167ffb0938)"><g transform="matrix(1, 0, 0, 1, 48, 103)"><g clip-path="url(#f992e743d8)"><g fill="#000000" fill-opacity="1"><g transform="translate(0.290447, 26.206451)"><g><path d="M 10.625 -1.71875 L 10.625 -1.375 C 10.625 -0.457031 10.171875 0 9.265625 0 L 3.4375 0 C 2.519531 0 2.0625 -0.457031 2.0625 -1.375 L 2.0625 -22.640625 C 2.0625 -23.554688 2.519531 -24.015625 3.4375 -24.015625 L 9.265625 -24.015625 C 10.171875 -24.015625 10.625 -23.554688 10.625 -22.640625 L 10.625 -22.296875 C 10.625 -21.378906 10.171875 -20.921875 9.265625 -20.921875 L 6.171875 -20.921875 C 5.710938 -20.921875 5.484375 -20.691406 5.484375 -20.234375 L 5.484375 -15.609375 C 5.484375 -15.148438 5.710938 -14.921875 6.171875 -14.921875 L 7.890625 -14.921875 C 8.804688 -14.921875 9.265625 -14.460938 9.265625 -13.546875 L 9.265625 -13.203125 C 9.265625 -12.285156 8.804688 -11.828125 7.890625 -11.828125 L 6.171875 -11.828125 C 5.710938 -11.828125 5.484375 -11.597656 5.484375 -11.140625 L 5.484375 -3.765625 C 5.484375 -3.316406 5.710938 -3.09375 6.171875 -3.09375 L 9.265625 -3.09375 C 10.171875 -3.09375 10.625 -2.632812 10.625 -1.71875 Z M 10.625 -1.71875 "/></g></g></g><g fill="#000000" fill-opacity="1"><g transform="translate(11.609422, 26.206451)"><g><path d="M 8.921875 -13.546875 L 8.921875 -19.546875 C 8.921875 -20.460938 8.460938 -20.921875 7.546875 -20.921875 L 6.171875 -20.921875 C 5.710938 -20.921875 5.484375 -20.691406 5.484375 -20.234375 L 5.484375 -12.71875 C 5.503906 -12.351562 5.734375 -12.171875 6.171875 -12.171875 L 7.546875 -12.171875 C 8.460938 -12.171875 8.921875 -12.628906 8.921875 -13.546875 Z M 4.109375 0 L 3.4375 0 C 2.519531 0 2.0625 -0.457031 2.0625 -1.375 L 2.0625 -22.640625 C 2.0625 -23.554688 2.519531 -24.015625 3.4375 -24.015625 L 8.234375 -24.015625 C 9.671875 -24.015625 10.710938 -23.6875 11.359375 -23.03125 C 12.015625 -22.375 12.34375 -21.328125 12.34375 -19.890625 L 12.34375 -13.203125 C 12.34375 -11.765625 12.015625 -10.71875 11.359375 -10.0625 C 10.710938 -9.414062 9.671875 -9.09375 8.234375 -9.09375 L 6.171875 -9.09375 C 5.710938 -9.09375 5.484375 -8.863281 5.484375 -8.40625 L 5.484375 -1.375 C 5.484375 -0.457031 5.023438 0 4.109375 0 Z M 4.109375 0 "/></g></g></g><g fill="#000000" fill-opacity="1"><g transform="translate(24.98324, 26.206451)"><g><path d="M 7.890625 0 L 3.09375 0 C 2.175781 0 1.71875 -0.457031 1.71875 -1.375 L 1.71875 -1.71875 C 1.71875 -2.632812 2.175781 -3.09375 3.09375 -3.09375 L 7.203125 -3.09375 C 8.117188 -3.09375 8.578125 -3.546875 8.578125 -4.453125 L 8.578125 -6 C 8.578125 -6.800781 8.457031 -7.320312 8.21875 -7.5625 C 7.976562 -7.800781 7.640625 -8.054688 7.203125 -8.328125 L 5.859375 -9.15625 C 5.359375 -9.476562 4.851562 -9.738281 4.34375 -9.9375 C 3.84375 -10.144531 3.398438 -10.394531 3.015625 -10.6875 C 2.628906 -10.988281 2.316406 -11.414062 2.078125 -11.96875 C 1.835938 -12.519531 1.71875 -13.273438 1.71875 -14.234375 L 1.71875 -19.890625 C 1.71875 -21.328125 2.039062 -22.375 2.6875 -23.03125 C 3.34375 -23.6875 4.390625 -24.015625 5.828125 -24.015625 L 7.71875 -24.015625 C 9.15625 -24.015625 10.195312 -23.6875 10.84375 -23.03125 C 11.5 -22.375 11.828125 -21.328125 11.828125 -19.890625 L 11.828125 -16.296875 C 11.828125 -15.378906 11.367188 -14.921875 10.453125 -14.921875 L 9.78125 -14.921875 C 8.863281 -14.921875 8.40625 -15.378906 8.40625 -16.296875 L 8.40625 -19.546875 C 8.40625 -20.460938 7.945312 -20.921875 7.03125 -20.921875 L 6.515625 -20.921875 C 5.597656 -20.921875 5.140625 -20.460938 5.140625 -19.546875 L 5.140625 -14.921875 C 5.140625 -14.328125 5.207031 -13.882812 5.34375 -13.59375 C 5.488281 -13.3125 5.664062 -13.113281 5.875 -13 C 6.09375 -12.882812 6.316406 -12.75 6.546875 -12.59375 L 7.890625 -11.796875 C 8.617188 -11.390625 9.242188 -11.039062 9.765625 -10.75 C 10.296875 -10.46875 10.726562 -10.171875 11.0625 -9.859375 C 11.394531 -9.546875 11.632812 -9.144531 11.78125 -8.65625 C 11.925781 -8.164062 12 -7.507812 12 -6.6875 L 12 -4.109375 C 12 -2.671875 11.671875 -1.625 11.015625 -0.96875 C 10.367188 -0.320312 9.328125 0 7.890625 0 Z M 7.890625 0 "/></g></g></g></g></g></g></svg>