<svg xmlns="http://www.w3.org/2000/svg" xmlns:xlink="http://www.w3.org/1999/xlink" width="180" zoomAndPan="magnify" viewBox="0 0 135 135.000003" height="180" preserveAspectRatio="xMidYMid meet" version="1.0"><defs><g/><clipPath id="0d310e9745"><path d="M 26.300781 7.117188 L 108.9375 7.117188 L 108.9375 95.710938 L 26.300781 95.710938 Z M 26.300781 7.117188 " clip-rule="nonzero"/></clipPath><clipPath id="887a5d33b7"><path d="M 48 103 L 87 103 L 87 134.007812 L 48 134.007812 Z M 48 103 " clip-rule="nonzero"/></clipPath><clipPath id="d94ef58d04"><rect x="0" width="39" y="0" height="32"/></clipPath></defs><g clip-path="url(#0d310e9745)"><path fill="#ffffff" d="M 41.28125 53.632812 C 46.816406 53.613281 51.640625 50.613281 54.242188 46.15625 L 54.28125 46.082031 C 54.878906 47.136719 55.546875 48.046875 56.308594 48.875 L 56.296875 48.863281 C 59.097656 51.804688 63.039062 53.632812 67.410156 53.632812 C 71.777344 53.632812 75.722656 51.804688 78.515625 48.871094 L 78.519531 48.863281 C 79.269531 48.046875 79.9375 47.136719 80.5 46.15625 L 80.539062 46.082031 C 83.1875 50.59375 88.015625 53.574219 93.539062 53.574219 C 101.839844 53.574219 108.566406 46.84375 108.566406 38.542969 C 108.566406 37.503906 108.460938 36.484375 108.257812 35.503906 L 108.273438 35.597656 L 104.339844 15.933594 C 103.339844 11.097656 99.117188 7.511719 94.058594 7.503906 L 40.722656 7.503906 C 35.664062 7.511719 31.445312 11.097656 30.457031 15.867188 L 30.441406 15.933594 L 26.511719 35.597656 C 26.320312 36.492188 26.214844 37.515625 26.214844 38.566406 C 26.214844 46.886719 32.957031 53.628906 41.277344 53.628906 C 41.277344 53.628906 41.28125 53.628906 41.28125 53.628906 Z M 94.058594 11.699219 C 97.097656 11.699219 99.632812 13.855469 100.21875 16.71875 L 100.226562 16.757812 L 104.164062 36.4375 C 104.296875 37.078125 104.371094 37.816406 104.371094 38.566406 C 104.371094 44.570312 99.503906 49.441406 93.5 49.441406 C 87.753906 49.441406 83.046875 44.980469 82.65625 39.335938 L 82.652344 39.300781 L 82.535156 37.578125 L 80.808594 11.703125 Z M 58.167969 11.699219 L 76.617188 11.699219 L 78.355469 37.84375 C 78.375 38.074219 78.382812 38.34375 78.382812 38.613281 C 78.382812 41.472656 77.265625 44.070312 75.445312 45.996094 L 75.453125 45.992188 C 73.457031 48.121094 70.632812 49.441406 67.496094 49.441406 C 67.417969 49.441406 67.347656 49.441406 67.273438 49.441406 L 67.285156 49.441406 C 67.285156 49.441406 67.28125 49.441406 67.28125 49.441406 C 61.277344 49.441406 56.410156 44.570312 56.410156 38.566406 C 56.410156 38.3125 56.417969 38.0625 56.433594 37.8125 L 56.429688 37.847656 Z M 30.617188 36.4375 L 34.554688 16.765625 C 35.148438 13.859375 37.683594 11.699219 40.722656 11.699219 L 53.972656 11.699219 L 52.253906 37.5625 L 52.128906 39.289062 C 51.742188 44.980469 47.03125 49.445312 41.28125 49.445312 C 35.277344 49.445312 30.40625 44.574219 30.40625 38.570312 C 30.40625 37.816406 30.484375 37.082031 30.628906 36.371094 L 30.617188 36.441406 Z M 31.75 57.667969 L 31.75 85.078125 C 31.75 90.867188 36.445312 95.5625 42.234375 95.5625 L 92.550781 95.5625 C 98.339844 95.5625 103.035156 90.867188 103.035156 85.078125 L 103.035156 57.660156 C 101.839844 58.273438 100.445312 58.804688 98.988281 59.1875 L 98.839844 59.21875 L 98.839844 85.078125 C 98.839844 88.554688 96.023438 91.367188 92.550781 91.367188 L 77.875 91.367188 L 77.875 76.691406 C 77.875 70.902344 73.179688 66.210938 67.390625 66.210938 C 61.605469 66.210938 56.910156 70.902344 56.910156 76.691406 L 56.910156 91.367188 L 42.234375 91.367188 C 38.761719 91.367188 35.945312 88.554688 35.945312 85.078125 L 35.945312 59.21875 C 34.339844 58.804688 32.945312 58.273438 31.632812 57.605469 L 31.75 57.660156 Z M 61.101562 76.691406 C 61.101562 73.21875 63.917969 70.402344 67.390625 70.402344 C 70.867188 70.402344 73.683594 73.21875 73.683594 76.691406 L 73.683594 91.367188 L 61.101562 91.367188 Z M 61.101562 76.691406 " fill-opacity="1" fill-rule="nonzero"/></g><g clip-path="url(#887a5d33b7)"><g transform="matrix(1, 0, 0, 1, 48, 103)"><g clip-path="url(#d94ef58d04)"><g fill="#ffffff" fill-opacity="1"><g transform="translate(0.290447, 26.206451)"><g><path d="M 10.625 -1.71875 L 10.625 -1.375 C 10.625 -0.457031 10.171875 0 9.265625 0 L 3.4375 0 C 2.519531 0 2.0625 -0.457031 2.0625 -1.375 L 2.0625 -22.640625 C 2.0625 -23.554688 2.519531 -24.015625 3.4375 -24.015625 L 9.265625 -24.015625 C 10.171875 -24.015625 10.625 -23.554688 10.625 -22.640625 L 10.625 -22.296875 C 10.625 -21.378906 10.171875 -20.921875 9.265625 -20.921875 L 6.171875 -20.921875 C 5.710938 -20.921875 5.484375 -20.691406 5.484375 -20.234375 L 5.484375 -15.609375 C 5.484375 -15.148438 5.710938 -14.921875 6.171875 -14.921875 L 7.890625 -14.921875 C 8.804688 -14.921875 9.265625 -14.460938 9.265625 -13.546875 L 9.265625 -13.203125 C 9.265625 -12.285156 8.804688 -11.828125 7.890625 -11.828125 L 6.171875 -11.828125 C 5.710938 -11.828125 5.484375 -11.597656 5.484375 -11.140625 L 5.484375 -3.765625 C 5.484375 -3.316406 5.710938 -3.09375 6.171875 -3.09375 L 9.265625 -3.09375 C 10.171875 -3.09375 10.625 -2.632812 10.625 -1.71875 Z M 10.625 -1.71875 "/></g></g></g><g fill="#ffffff" fill-opacity="1"><g transform="translate(11.609422, 26.206451)"><g><path d="M 8.921875 -13.546875 L 8.921875 -19.546875 C 8.921875 -20.460938 8.460938 -20.921875 7.546875 -20.921875 L 6.171875 -20.921875 C 5.710938 -20.921875 5.484375 -20.691406 5.484375 -20.234375 L 5.484375 -12.71875 C 5.503906 -12.351562 5.734375 -12.171875 6.171875 -12.171875 L 7.546875 -12.171875 C 8.460938 -12.171875 8.921875 -12.628906 8.921875 -13.546875 Z M 4.109375 0 L 3.4375 0 C 2.519531 0 2.0625 -0.457031 2.0625 -1.375 L 2.0625 -22.640625 C 2.0625 -23.554688 2.519531 -24.015625 3.4375 -24.015625 L 8.234375 -24.015625 C 9.671875 -24.015625 10.710938 -23.6875 11.359375 -23.03125 C 12.015625 -22.375 12.34375 -21.328125 12.34375 -19.890625 L 12.34375 -13.203125 C 12.34375 -11.765625 12.015625 -10.71875 11.359375 -10.0625 C 10.710938 -9.414062 9.671875 -9.09375 8.234375 -9.09375 L 6.171875 -9.09375 C 5.710938 -9.09375 5.484375 -8.863281 5.484375 -8.40625 L 5.484375 -1.375 C 5.484375 -0.457031 5.023438 0 4.109375 0 Z M 4.109375 0 "/></g></g></g><g fill="#ffffff" fill-opacity="1"><g transform="translate(24.98324, 26.206451)"><g><path d="M 7.890625 0 L 3.09375 0 C 2.175781 0 1.71875 -0.457031 1.71875 -1.375 L 1.71875 -1.71875 C 1.71875 -2.632812 2.175781 -3.09375 3.09375 -3.09375 L 7.203125 -3.09375 C 8.117188 -3.09375 8.578125 -3.546875 8.578125 -4.453125 L 8.578125 -6 C 8.578125 -6.800781 8.457031 -7.320312 8.21875 -7.5625 C 7.976562 -7.800781 7.640625 -8.054688 7.203125 -8.328125 L 5.859375 -9.15625 C 5.359375 -9.476562 4.851562 -9.738281 4.34375 -9.9375 C 3.84375 -10.144531 3.398438 -10.394531 3.015625 -10.6875 C 2.628906 -10.988281 2.316406 -11.414062 2.078125 -11.96875 C 1.835938 -12.519531 1.71875 -13.273438 1.71875 -14.234375 L 1.71875 -19.890625 C 1.71875 -21.328125 2.039062 -22.375 2.6875 -23.03125 C 3.34375 -23.6875 4.390625 -24.015625 5.828125 -24.015625 L 7.71875 -24.015625 C 9.15625 -24.015625 10.195312 -23.6875 10.84375 -23.03125 C 11.5 -22.375 11.828125 -21.328125 11.828125 -19.890625 L 11.828125 -16.296875 C 11.828125 -15.378906 11.367188 -14.921875 10.453125 -14.921875 L 9.78125 -14.921875 C 8.863281 -14.921875 8.40625 -15.378906 8.40625 -16.296875 L 8.40625 -19.546875 C 8.40625 -20.460938 7.945312 -20.921875 7.03125 -20.921875 L 6.515625 -20.921875 C 5.597656 -20.921875 5.140625 -20.460938 5.140625 -19.546875 L 5.140625 -14.921875 C 5.140625 -14.328125 5.207031 -13.882812 5.34375 -13.59375 C 5.488281 -13.3125 5.664062 -13.113281 5.875 -13 C 6.09375 -12.882812 6.316406 -12.75 6.546875 -12.59375 L 7.890625 -11.796875 C 8.617188 -11.390625 9.242188 -11.039062 9.765625 -10.75 C 10.296875 -10.46875 10.726562 -10.171875 11.0625 -9.859375 C 11.394531 -9.546875 11.632812 -9.144531 11.78125 -8.65625 C 11.925781 -8.164062 12 -7.507812 12 -6.6875 L 12 -4.109375 C 12 -2.671875 11.671875 -1.625 11.015625 -0.96875 C 10.367188 -0.320312 9.328125 0 7.890625 0 Z M 7.890625 0 "/></g></g></g></g></g></g></svg>