<svg xmlns="http://www.w3.org/2000/svg" xmlns:xlink="http://www.w3.org/1999/xlink" width="2000" zoomAndPan="magnify" viewBox="0 0 1500 1499.999933" height="2000" preserveAspectRatio="xMidYMid meet" version="1.0"><defs><clipPath id="a0a5e5031c"><path d="M 498 985 L 513.878906 985 L 513.878906 1005.78125 L 498 1005.78125 Z M 498 985 " clip-rule="nonzero"/></clipPath></defs><path fill="#000000" d="M 235.4375 1286.167969 C 230.164062 1286.167969 224.90625 1284.15625 220.886719 1280.136719 C 212.847656 1272.097656 212.847656 1259.074219 220.886719 1251.03125 L 1250.003906 221.914062 C 1258.042969 213.875 1271.066406 213.875 1279.109375 221.914062 C 1287.148438 229.957031 1287.148438 242.980469 1279.109375 251.019531 L 249.992188 1280.136719 C 245.972656 1284.15625 240.695312 1286.167969 235.4375 1286.167969 " fill-opacity="1" fill-rule="nonzero"/><path fill="#000000" d="M 1264.554688 1286.167969 C 1259.296875 1286.167969 1254.023438 1284.15625 1250.003906 1280.136719 L 220.886719 251.019531 C 212.847656 242.980469 212.847656 229.957031 220.886719 221.914062 C 228.925781 213.875 241.949219 213.875 249.992188 221.914062 L 1279.109375 1251.03125 C 1287.148438 1259.074219 1287.148438 1272.097656 1279.109375 1280.136719 C 1275.089844 1284.15625 1269.8125 1286.167969 1264.554688 1286.167969 " fill-opacity="1" fill-rule="nonzero"/><g clip-path="url(#a0a5e5031c)"><path fill="#000000" d="M 499.113281 996.589844 L 499.136719 996.621094 L 505.363281 1005.636719 C 505.433594 1005.730469 505.523438 1005.773438 505.636719 1005.773438 C 505.75 1005.773438 505.839844 1005.730469 505.910156 1005.636719 L 512.121094 996.621094 L 512.140625 996.589844 C 512.296875 996.300781 512.433594 996.007812 512.550781 995.703125 C 512.667969 995.394531 512.765625 995.085938 512.84375 994.765625 C 512.921875 994.449219 512.980469 994.125 513.019531 993.800781 C 513.054688 993.472656 513.070312 993.148438 513.066406 992.820312 C 513.0625 992.492188 513.035156 992.164062 512.992188 991.839844 C 512.945312 991.515625 512.878906 991.195312 512.789062 990.878906 C 512.703125 990.5625 512.597656 990.253906 512.46875 989.953125 C 512.34375 989.652344 512.199219 989.359375 512.035156 989.078125 C 511.871094 988.792969 511.691406 988.523438 511.492188 988.265625 C 511.292969 988.007812 511.082031 987.761719 510.851562 987.53125 C 510.621094 987.300781 510.378906 987.089844 510.121094 986.890625 C 509.863281 986.691406 509.597656 986.511719 509.316406 986.347656 C 509.035156 986.1875 508.75 986.042969 508.449219 985.917969 C 508.152344 985.792969 507.847656 985.6875 507.535156 985.605469 C 507.222656 985.519531 506.910156 985.457031 506.589844 985.414062 C 506.269531 985.371094 505.949219 985.351562 505.628906 985.351562 C 505.304688 985.351562 504.984375 985.371094 504.664062 985.414062 C 504.34375 985.457031 504.03125 985.519531 503.71875 985.605469 C 503.40625 985.6875 503.101562 985.792969 502.804688 985.917969 C 502.507812 986.042969 502.21875 986.1875 501.9375 986.347656 C 501.65625 986.511719 501.390625 986.691406 501.132812 986.890625 C 500.875 987.089844 500.632812 987.300781 500.402344 987.53125 C 500.175781 987.761719 499.960938 988.007812 499.761719 988.265625 C 499.5625 988.523438 499.382812 988.792969 499.21875 989.078125 C 499.054688 989.359375 498.910156 989.652344 498.785156 989.953125 C 498.65625 990.253906 498.550781 990.5625 498.464844 990.878906 C 498.375 991.195312 498.308594 991.515625 498.265625 991.839844 C 498.21875 992.164062 498.191406 992.492188 498.1875 992.820312 C 498.183594 993.148438 498.199219 993.472656 498.238281 993.800781 C 498.273438 994.125 498.332031 994.449219 498.410156 994.765625 C 498.488281 995.085938 498.585938 995.394531 498.703125 995.703125 C 498.820312 996.007812 498.957031 996.300781 499.113281 996.589844 Z M 505.628906 989.761719 C 506.039062 989.761719 506.4375 989.839844 506.820312 990.003906 C 507.199219 990.164062 507.539062 990.394531 507.828125 990.691406 C 508.121094 990.988281 508.347656 991.332031 508.503906 991.71875 C 508.664062 992.105469 508.742188 992.511719 508.742188 992.933594 C 508.742188 993.351562 508.664062 993.757812 508.503906 994.144531 C 508.347656 994.535156 508.121094 994.878906 507.828125 995.175781 C 507.539062 995.472656 507.199219 995.703125 506.820312 995.863281 C 506.4375 996.023438 506.039062 996.101562 505.628906 996.101562 C 505.214844 996.101562 504.816406 996.023438 504.433594 995.863281 C 504.054688 995.703125 503.71875 995.472656 503.425781 995.175781 C 503.132812 994.878906 502.90625 994.535156 502.75 994.144531 C 502.589844 993.757812 502.511719 993.351562 502.511719 992.933594 C 502.511719 992.511719 502.589844 992.105469 502.75 991.71875 C 502.90625 991.332031 503.132812 990.988281 503.425781 990.691406 C 503.71875 990.394531 504.054688 990.164062 504.433594 990.003906 C 504.816406 989.839844 505.214844 989.761719 505.628906 989.761719 Z M 505.628906 989.761719 " fill-opacity="1" fill-rule="nonzero"/></g></svg>